<?xml version="1.0" encoding="UTF-8"?><svg xmlns="http://www.w3.org/2000/svg" xmlns:xlink="http://www.w3.org/1999/xlink" viewBox="0 0 345 391.29"><defs><style>.g{fill:url(#f);}.h{fill:url(#d);}.i{fill:url(#e);}</style><linearGradient id="d" x1="198.48" y1="153.94" x2="146.52" y2="243.94" gradientTransform="matrix(1, 0, 0, 1, 0, 0)" gradientUnits="userSpaceOnUse"><stop offset=".14" stop-color="#5a8dca"/><stop offset="1" stop-color="#1e417c"/></linearGradient><linearGradient id="e" x1="365.15" y1="124.29" x2="203.99" y2="403.43" xlink:href="#d"/><linearGradient id="f" x1="283.67" y1="43.01" x2="14.21" y2="312.48" gradientTransform="matrix(1, 0, 0, 1, 0, 0)" gradientUnits="userSpaceOnUse"><stop offset="0" stop-color="#9bc8eb"/><stop offset=".18" stop-color="#97c5e9"/><stop offset=".34" stop-color="#8cbee3"/><stop offset=".49" stop-color="#7ab1d8"/><stop offset=".64" stop-color="#619fca"/><stop offset=".78" stop-color="#4089b8"/><stop offset=".92" stop-color="#196da2"/><stop offset="1" stop-color="#005c94"/></linearGradient></defs><g id="a"/><g id="b"><g id="c"><g><g><path class="h" d="M224.46,226.63v-55.38c0-1.27-.9-2.83-2-3.46l-47.96-27.69c-1.1-.64-2.9-.64-4,0l-47.96,27.69c-1.1,.64-2,2.19-2,3.46v55.38c0,1.27,.9,2.83,2,3.46l47.96,27.69c1.1,.64,2.9,.64,4,0l47.96-27.69c1.1-.64,2-2.19,2-3.46Z"/><path class="i" d="M345,128.84v-13.33c0-3.81-2.7-5.37-6-3.46l-69.24,39.97c-1.1,.64-2,2.19-2,3.46v92.68c0,3.18-2.25,7.07-5,8.66l-80.26,46.34c-1.1,.64-2,2.19-2,3.46v80.38c0,3.81,2.7,5.37,6,3.46,4.14-2.39,8.1-4.67,10.23-5.91,.69-.4,1.48-1.33,1.75-2.09,.75-2.05,2.15-5.92,2.9-7.97,.27-.75,1.06-1.69,1.76-2.09l102.44-59.15c.69-.4,1.91-.61,2.69-.48l8.35,1.47c.79,.14,2-.07,2.69-.48l23.67-13.67c1.1-.64,2-2.19,2-3.46v-25.95c0-.77-.39-1.9-.88-2.5l-5.25-6.56c-.48-.6-.88-1.73-.88-2.5v-118.75c0-.77,.39-1.9,.88-2.5l5.25-6.56c.48-.6,.88-1.73,.88-2.5Z"/></g><path class="g" d="M7,140.4v118.75c0,.77-.39,1.9-.88,2.5l-5.25,6.56C.39,268.81,0,269.93,0,270.7v25.95c0,1.27,.9,2.83,2,3.46l23.67,13.67c.69,.4,1.91,.61,2.69,.48l8.35-1.47c.79-.14,2,.07,2.69,.48l102.44,59.15c.69,.4,1.48,1.34,1.76,2.1l2.9,7.97c.27,.75,1.06,1.69,1.75,2.09,2.12,1.23,6.09,3.52,10.24,5.91,3.3,1.91,6,.35,6-3.46v-80.38c0-1.27-.9-2.83-2-3.46l-80.26-46.34c-2.75-1.59-5-5.48-5-8.66v-98.45c0-3.18,2.25-7.07,5-8.66l85.26-49.23c2.75-1.59,7.25-1.59,10,0l80.26,46.34c1.1,.64,2.9,.64,4,0l69.61-40.19c3.3-1.91,3.3-5.02,0-6.93l-10.61-6.12c-.69-.4-1.91-.61-2.69-.48l-8.35,1.47c-.79,.14-2-.07-2.69-.48L204.59,26.3c-.69-.4-1.48-1.34-1.76-2.1l-2.9-7.97c-.27-.75-1.07-1.7-1.76-2.1L174.5,.48c-1.1-.64-2.9-.64-4,0l-23.67,13.67c-.69,.4-1.48,1.34-1.76,2.1l-2.9,7.97c-.27,.75-1.07,1.7-1.76,2.1L37.97,85.45c-.69,.4-1.91,.61-2.69,.48l-8.35-1.47c-.79-.14-2,.07-2.69,.48L2,97.76C.9,98.39,0,99.95,0,101.22v27.62c0,.77,.39,1.9,.88,2.5l5.25,6.56c.48,.6,.88,1.73,.88,2.5Z"/></g></g></g></svg>